<svg xmlns="http://www.w3.org/2000/svg" width="506.742" height="319.486" viewBox="0 0 506.742 319.486">
  <g id="access-denied" transform="translate(-609 -247)">
    <g id="_404" data-name="404" transform="translate(528.093 228.376)">
      <g id="XMLID_156_">
        <path id="XMLID_60_" d="M353.2,18.7c-17.8-.2-125.6-1.8-128.8,28.2-3,28.8,38.7,18.2,39.1,31,.4,13.4-7.5,17.3-29.8,16.4-9.6-.4-40,3-40.5,22.2-.5,19.1,33.5,16.7,31.8,32.5-1,18-26.8,21.9-36.9,26.7-11,5.8-31.4,15.3-26.7,35.7,6.1,23.7,45.2,19.4,59.9,22.4,9.8,1.6,41,4.3,36.6,25.3-2.3,12.6-27.9,13.4-23.1,29.5,5,15.1,49.6,18.1,58.7,18.6,37.6,2,120,5.4,156.8-10.1,13.5-5.6,25.4-12.4,24-32.7-.7-18.1-10.4-20.7,6-34.7,10.4-9,30.3-8.3,29.1-34.5-.6-14.2-36.9-20.1-36.1-34.9,1.3-23.3,45.7-3.5,45.9-44.7.1-25.7-80.8-11.3-80-36.8-1.1-10.3,16.7-14.7,16-26.1C455.6,34.4,434.7,20.9,353.2,18.7Z" fill="#eaebfb"/>
      </g>
      <path id="XMLID_155_" d="M143.9,250.6a.367.367,0,0,1-.3.1h-62a.56.56,0,0,1-.6-.5c-.7-2.9,2.7-5.3,5-4.1a3.029,3.029,0,0,1,3.4-2.3,5.568,5.568,0,0,1,9.8-4.9,10.827,10.827,0,0,1,9.6-8.8,10.42,10.42,0,0,1,7.4,2.3,9.689,9.689,0,0,1,3.2,5.8,5.749,5.749,0,0,1,6.8-2.3c2.8.9,3.1,3.7,3,6.3,2.2-1.9,4.9-2.8,7.9-1,2.4,1.5,3,3.8,3.1,6.4,2-1.2,4.1,0,4.2,2.7C144.2,250.3,144.1,250.5,143.9,250.6Z" fill="#dfe0f3"/>
      <path id="XMLID_153_" d="M455.4,76.8c0,11.9,32.2,14.1,33.9,0C491,62.8,455.4,59,455.4,76.8Z" fill="#dfe0f3"/>
      <path id="XMLID_151_" d="M195.2,259.5c0,11.9,39.9,14.2,41.3,0C238.3,242,195.2,238.7,195.2,259.5Z" fill="#dfe0f3"/>
      <path id="XMLID_150_" d="M427.6,326.5c0,14.1,47.3,16.8,49,0C478.8,305.8,427.6,301.8,427.6,326.5Z" fill="#dfe0f3"/>
      <path id="XMLID_137_" d="M191.9,77.7c0,7.8,22,9.3,22.8,0C215.6,66.3,191.9,64.1,191.9,77.7Z" fill="#dfe0f3"/>
      <path id="XMLID_136_" d="M175.2,259.8c.7-3.3-4.2-6.3-8-5.1.6-2.3-.1-4.3-3.4-5.3a8.588,8.588,0,0,0-4.5,0c2.6-5.2.2-11.2-7.9-12.4-8.8-1.3-18.6,3-20.4,10-7.2-7.1-22.4,1.4-17.9,9.5-2.8-.4-5.6,1.1-5.8,3.5a2.838,2.838,0,0,0-3.3,4.4.713.713,0,0,0,.6.3h75a.9.9,0,0,0,.5-.1l.3-.3C181.1,261.6,177.9,259.3,175.2,259.8Z" fill="#ace0e8"/>
      <path id="XMLID_135_" d="M318.6,271.7c.3-1.5-1.9-2.8-3.5-2.3.3-1,0-1.9-1.5-2.4a3.408,3.408,0,0,0-2,0c1.2-2.3.1-5-3.5-5.5-3.9-.6-8.2,1.3-9,4.4-3.2-3.1-9.9.6-7.9,4.2-1.2-.2-2.5.5-2.6,1.5a1.261,1.261,0,0,0-1.5,1.9.367.367,0,0,0,.3.1h33.1c.1,0,.2,0,.2-.1a.1.1,0,0,0,.1-.1C321.2,272.5,319.8,271.5,318.6,271.7Z" fill="#fff"/>
      <path id="XMLID_134_" d="M452.4,136.5c.1,0,.1.1.2.1h46.1a.55.55,0,0,0,.5-.3,2.787,2.787,0,0,0-3.7-3.1,2.167,2.167,0,0,0-2.5-1.7,4.053,4.053,0,0,0-2.3-5,3.9,3.9,0,0,0-4.9,1.3,8.287,8.287,0,0,0-7.2-6.6,7.861,7.861,0,0,0-5.5,1.7,7.207,7.207,0,0,0-2.4,4.3,4.186,4.186,0,0,0-5-1.7c-2.1.6-2.3,2.8-2.2,4.7-1.7-1.4-3.7-2.1-5.8-.7-1.8,1.1-2.2,2.8-2.3,4.7-1.5-.9-3,0-3.1,2A.192.192,0,0,0,452.4,136.5Z" fill="#fff"/>
      <path id="XMLID_132_" d="M332.3,53.8h31.3c.1,0,.3-.1.3-.2a1.915,1.915,0,0,0-2.5-2.1,1.537,1.537,0,0,0-1.7-1.2,2.8,2.8,0,0,0-1.6-3.4,2.642,2.642,0,0,0-3.3.9,5.311,5.311,0,0,0-4.8-4.4,5.416,5.416,0,0,0-3.7,1.1,5.28,5.28,0,0,0-1.6,2.9,2.987,2.987,0,0,0-3.4-1.2c-1.4.4-1.6,1.9-1.5,3.1a3.292,3.292,0,0,0-4-.5,3.355,3.355,0,0,0-1.5,3.2c-1-.6-2,0-2.1,1.4C332.1,53.6,332.2,53.7,332.3,53.8Z" fill="#fff"/>
      <g id="XMLID_227_">
        <path id="XMLID_131_" d="M546.1,304a.367.367,0,0,0-.1-.3.55.55,0,0,0-.5-.3c-7.8.1-15.7.3-23.5.4a.645.645,0,0,0-.6.6c.2,4.5-.2,9.2.6,13.7.7,4.2,5.3,4.5,8.8,4.7,4.5.3,11,.4,13.7-2C547.4,318,546.2,308.5,546.1,304Z" fill="#63b7bd"/>
        <g id="XMLID_246_">
          <path id="XMLID_127_" d="M525.4,312.9a4.532,4.532,0,0,1-4.4-3.4c0-.2.1-.4.3-.4s.4.1.4.3a3.821,3.821,0,0,0,4.7,2.7c2.6-.5,2.8-5.8,2.8-5.9a.265.265,0,0,1,.3-.3c.2,0,.3.1.4.3a6.383,6.383,0,0,1,.2.9c.3,1.3.7,3.3,1.7,4.1a5.841,5.841,0,0,0,5.3.5c1.4-.6,2.1-2.6,2.1-4.4,0-.3-.1-.5-.1-.8,0-.2.1-.4.3-.4s.4.1.4.3c0,.3.1.5.1.8a5.064,5.064,0,0,0,2.9,4.1,2.849,2.849,0,0,0,3.2-1.4c.1-.2.3-.2.5-.1s.2.3.1.5a3.651,3.651,0,0,1-4,1.7,4.97,4.97,0,0,1-2.9-2.8,4.067,4.067,0,0,1-2.4,3.2c-1.6.7-4.6.6-6-.7a7.774,7.774,0,0,1-1.7-3.4c-.3,1.8-1.2,4.2-3.1,4.5C526.2,312.8,525.8,312.9,525.4,312.9Z" fill="#8cd0d8"/>
        </g>
        <g id="XMLID_126_">
          <path id="XMLID_62_" d="M533.2,301.8c-2.5,0-11,.1-11.9,2-1.2,2.7,12.5,2.5,15.2,2.4C549.1,305.8,550.6,301.2,533.2,301.8Z" fill="#559da1"/>
        </g>
        <g id="XMLID_241_">
          <path id="XMLID_123_" d="M533.2,301.3c-1.4,0-13.5-.2-12.4,3.1.5,1.6,3.1,1.7,4.5,1.9a68.53,68.53,0,0,0,9.1.4,53.859,53.859,0,0,0,8-.6c1.2-.2,3.7-.6,4.3-2,1.1-3.5-12.6-2.8-13.5-2.8a.5.5,0,0,0,0,1,55.812,55.812,0,0,1,8.2.2c.5,0,5.3.7,3.7,1.7-2.9,1.9-7.5,1.6-10.9,1.6-3.7,0-7.7.1-11.3-.9-1.7-.5-.6-1.5.6-1.8a15.873,15.873,0,0,1,3.8-.6,56.2,56.2,0,0,1,5.8-.2C533.8,302.3,533.8,301.3,533.2,301.3Z" fill="#8cd0d8"/>
        </g>
        <g id="XMLID_234_">
          <g id="XMLID_239_">
            <path id="XMLID_119_" d="M546.2,275.1c-.2,9.5-.5,19.1-.6,28.6a.351.351,0,1,0,.7,0c.1-9.5.5-19.1.6-28.6.1-.4-.7-.4-.7,0Z" fill="#63b7bd"/>
          </g>
          <g id="XMLID_237_">
            <path id="XMLID_117_" d="M519.5,275c.3,9.6.4,19.3,1.4,28.9,0,.5.8.5.7,0-1-9.6-1.1-19.2-1.4-28.9a.351.351,0,1,0-.7,0Z" fill="#63b7bd"/>
          </g>
          <g id="XMLID_235_">
            <path id="XMLID_116_" d="M532.5,276.6c.8,9.7-.2,19.5.6,29.2,0,.5.8.5.7,0-.9-9.7.2-19.5-.6-29.2a.351.351,0,1,0-.7,0Z" fill="#63b7bd"/>
          </g>
        </g>
        <path id="XMLID_115_" d="M583.6,192.1c-3-7.7-8.6-15.4-17.4-17h-.3c-6.5-.7-10.4,5.9-12.7,10.9-4.2,9-6,19.2-7.6,28.9-3.2,19.1-6.5,40-.9,59a1.293,1.293,0,0,0,2.3.3c6-9.2,18.4-12.4,26.3-19.7,8.3-7.7,12.5-18.9,13.8-29.8C588.3,213.5,587.7,202.6,583.6,192.1Z" fill="#8cd0d8"/>
        <path id="XMLID_110_" d="M518.3,223c-2.9-15.7-9.8-31.4-17.7-45.4a1.218,1.218,0,0,0-1.2-.6,1.268,1.268,0,0,0-.6.1c-8,4.1-12.2,11.9-14.9,20-2.9,8.7-4.4,19.3-3,28.4,1.7,11.8,8.4,22.2,17.2,30.2,7.2,6.6,16.1,10.9,22.5,18.4a1.263,1.263,0,0,0,2.1-.9A283.788,283.788,0,0,0,518.3,223Z" fill="#ace0e8"/>
        <path id="XMLID_109_" d="M556.2,166c-7-3.8-15.3-4.5-23-3a1.135,1.135,0,0,0-.9.7c-4.7,6.7-5.4,16.1-6.1,23.9-1.1,12.3-.8,24.8-.2,37.2.7,16.7,2.1,33.3,4.3,49.9a1.216,1.216,0,0,0,1.2,1.2h14.3a1.255,1.255,0,0,0,1.1-.6c13.2-24.3,16.9-53.5,19.1-80.5.5-6.2.9-12.4,1-18.5C567.1,172.2,559.2,167.7,556.2,166Z" fill="#ace0e8"/>
        <path id="XMLID_108_" d="M536.4,167.9c-2.2-12.9-25-2.6-31.1,1.8-5.6,4.1-7.1,7.9-7.4,14.2a171.58,171.58,0,0,0,1.3,31.2,148.575,148.575,0,0,0,11.2,41.4c1.8,4,3.7,7.9,5.8,11.7,1,1.7,3.1,7.2,5.1,7.8,3,.8,7.2,0,10.3,0a1.107,1.107,0,0,0,1.1-.8.6.6,0,0,0,.1-.4c2-23.6,3.5-47.2,4.3-70.8C537.5,192.1,538.4,179.6,536.4,167.9Z" fill="#8cd0d8"/>
        <g id="XMLID_228_">
          <path id="XMLID_107_" d="M519.1,276.5a80.946,80.946,0,0,0,28.2,0c2.6-.5,1.5-4-1.1-3.5a73.269,73.269,0,0,1-26,0c-2.6-.5-3.7,3.1-1.1,3.5Z" fill="#63b7bd"/>
        </g>
      </g>
      <g id="XMLID_147_">
        <path id="XMLID_106_" d="M139.3,93.5v-.1c0-.1-.1-.1-.2-.1-3.4.1-6.8.1-10.2.2a.319.319,0,0,0-.3.3,57.179,57.179,0,0,0,.2,5.9c.3,1.8,2.3,2,3.8,2,2,.1,4.8.2,5.9-.9C139.8,99.5,139.3,95.4,139.3,93.5Z" fill="#80a9b0"/>
        <g id="XMLID_203_">
          <path id="XMLID_105_" d="M130.3,97.3a2.044,2.044,0,0,1-1.9-1.5c0-.1,0-.2.1-.2s.2,0,.2.1a1.615,1.615,0,0,0,2,1.2c1.1-.2,1.2-2.5,1.2-2.6s.1-.1.1-.2c.1,0,.1,0,.2.1,0,.1.1.2.1.4a3.594,3.594,0,0,0,.7,1.8,2.648,2.648,0,0,0,2.3.2c.6-.2.9-1.1.9-1.9v-.4a.349.349,0,0,1,.1-.2c.1,0,.2,0,.2.1v.4a1.994,1.994,0,0,0,1.3,1.8c.5.2,1-.1,1.4-.6.1-.1.1-.1.2,0,.1,0,.1.1,0,.2a1.447,1.447,0,0,1-1.7.7,2.5,2.5,0,0,1-1.3-1.2,1.87,1.87,0,0,1-1,1.4,2.691,2.691,0,0,1-2.6-.3,2.356,2.356,0,0,1-.7-1.5c-.1.8-.5,1.8-1.4,2C130.6,97.3,130.5,97.3,130.3,97.3Z" fill="#9fc0ca"/>
        </g>
        <g id="XMLID_104_">
          <path id="XMLID_63_" d="M133.7,92.5c-1.1,0-4.7,0-5.1.9-.5,1.2,5.4,1.1,6.6,1C140.6,94.2,141.2,92.2,133.7,92.5Z" fill="#637e7f"/>
        </g>
        <g id="XMLID_196_">
          <path id="XMLID_103_" d="M133.7,92.3c-.6,0-5.9-.1-5.4,1.3.2.7,1.3.8,1.9.8a25.488,25.488,0,0,0,3.9.2,20.679,20.679,0,0,0,3.5-.3c.5-.1,1.6-.3,1.8-.9.6-1.4-5.3-1.1-5.7-1.1a.2.2,0,1,0,0,.4c1.2,0,2.4,0,3.6.1.2,0,2.3.3,1.6.7-1.3.8-3.3.7-4.7.7a20.283,20.283,0,0,1-4.9-.4c-.8-.2-.2-.6.3-.8a9.006,9.006,0,0,1,1.6-.3,20.9,20.9,0,0,1,2.5-.1C133.9,92.7,133.9,92.3,133.7,92.3Z" fill="#9fc0ca"/>
        </g>
        <g id="XMLID_177_">
          <g id="XMLID_192_">
            <path id="XMLID_102_" d="M139.3,81c-.1,4.1-.2,8.3-.3,12.4a.15.15,0,0,0,.3,0c.1-4.1.2-8.3.3-12.4a.15.15,0,0,0-.3,0Z" fill="#80a9b0"/>
          </g>
          <g id="XMLID_188_">
            <path id="XMLID_101_" d="M127.7,80.9c.1,4.2.2,8.3.6,12.5a.15.15,0,0,0,.3,0c-.4-4.2-.5-8.3-.6-12.5a.15.15,0,1,0-.3,0Z" fill="#80a9b0"/>
          </g>
          <g id="XMLID_184_">
            <path id="XMLID_100_" d="M133.4,81.6c.3,4.2-.1,8.4.3,12.7a.15.15,0,0,0,.3,0c-.4-4.2.1-8.4-.3-12.7a.15.15,0,0,0-.3,0Z" fill="#80a9b0"/>
          </g>
        </g>
        <path id="XMLID_96_" d="M155.5,45c-1.3-3.3-3.7-6.7-7.5-7.4h-.2c-2.8-.3-4.5,2.5-5.5,4.7-1.8,3.9-2.6,8.3-3.3,12.5-1.4,8.3-2.8,17.3-.4,25.5.1.5.7.5,1,.1,2.6-4,8-5.4,11.4-8.5,3.6-3.3,5.4-8.2,6-12.9A27.9,27.9,0,0,0,155.5,45Z" fill="#60b0e1"/>
        <path id="XMLID_89_" d="M127.2,58.4a63.6,63.6,0,0,0-7.7-19.6.55.55,0,0,0-.5-.3c-.1,0-.2,0-.2.1-3.5,1.8-5.3,5.2-6.5,8.7A28.658,28.658,0,0,0,111,59.6c.7,5.1,3.6,9.6,7.4,13.1,3.1,2.9,7,4.7,9.8,8,.3.4.9.1.9-.4A114.333,114.333,0,0,0,127.2,58.4Z" fill="#69c1ed"/>
        <path id="XMLID_87_" d="M143.7,33.7a14.97,14.97,0,0,0-10-1.3c-.2,0-.3.2-.4.3-2,2.9-2.3,7-2.6,10.4a123.46,123.46,0,0,0-.1,16.1q.45,10.8,1.8,21.6a.472.472,0,0,0,.5.5h6.2a.55.55,0,0,0,.5-.3c5.7-10.5,7.3-23.2,8.3-34.9.2-2.7.4-5.4.4-8C148.4,36.4,144.9,34.4,143.7,33.7Z" fill="#69c1ed"/>
        <path id="XMLID_85_" d="M135.1,34.5c-1-5.6-10.9-1.1-13.5.8a6.9,6.9,0,0,0-3.2,6.1,67.868,67.868,0,0,0,.6,13.5,65.911,65.911,0,0,0,4.8,17.9c.8,1.7,1.6,3.4,2.5,5.1.4.8,1.3,3.1,2.2,3.4,1.3.4,3.1,0,4.5,0,.3,0,.4-.2.5-.4v-.2c.9-10.2,1.5-20.4,1.9-30.7C135.6,45,136,39.6,135.1,34.5Z" fill="#60b0e1"/>
        <g id="XMLID_148_">
          <path id="XMLID_83_" d="M127.6,81.6a35.7,35.7,0,0,0,12.2,0c1.1-.2.7-1.7-.5-1.5a32.985,32.985,0,0,1-11.3,0,.779.779,0,1,0-.4,1.5Z" fill="#80a9b0"/>
        </g>
      </g>
      <g id="XMLID_10_">
        <path id="XMLID_16_" d="M275.4,211c-.1-.1-.1-.1-.1-.2v-9.3a.367.367,0,0,1,.1-.3c.1-.1.1-.1.2-.1h3.8a4.551,4.551,0,0,1,2.7.8,2.719,2.719,0,0,1,1,2.4,2.644,2.644,0,0,1-1,2.3,4.551,4.551,0,0,1-2.7.8h-2.1v3.3c0,.1,0,.2-.1.2a.367.367,0,0,1-.3.1h-1.4C275.5,211.1,275.4,211.1,275.4,211Zm4-5.1a1.844,1.844,0,0,0,1.3-.4,1.366,1.366,0,0,0,.4-1.1,1.594,1.594,0,0,0-.4-1.2,1.7,1.7,0,0,0-1.3-.4h-2v3.1h2Z" fill="#3d415b"/>
        <path id="XMLID_191_" d="M285.3,211.1c-.1-.1-.1-.1-.1-.2v-.1l3.4-9.2a.664.664,0,0,1,.5-.4h1.6a.51.51,0,0,1,.5.4l3.4,9.2v.1c0,.1,0,.2-.1.2-.1.1-.1.1-.2.1H293c-.2,0-.3-.1-.4-.3l-.7-1.7h-4.2l-.7,1.7c-.1.2-.2.3-.4.3h-1.3C285.5,211.1,285.4,211.1,285.3,211.1Zm3.1-3.6h3.2l-1.6-4.4Z" fill="#3d415b"/>
        <path id="XMLID_200_" d="M298.8,210.3a4.262,4.262,0,0,1-1.2-2.8v-2.6a3.489,3.489,0,0,1,1.2-2.8,4.2,4.2,0,0,1,3-1,5.558,5.558,0,0,1,2.3.4,3.269,3.269,0,0,1,1.4,1.1,2.355,2.355,0,0,1,.5,1.3c0,.1,0,.2-.1.2-.1.1-.1.1-.2.1h-1.5c-.1,0-.2,0-.2-.1a.349.349,0,0,1-.1-.2c-.1-.4-.4-.6-.7-.9a2.588,2.588,0,0,0-1.4-.4,2.544,2.544,0,0,0-1.6.5,2.2,2.2,0,0,0-.6,1.7v2.6a2.2,2.2,0,0,0,.6,1.7,2.066,2.066,0,0,0,1.6.5,2.544,2.544,0,0,0,1.6-.5,2.111,2.111,0,0,0,.6-1.6V207h-1.7c-.1,0-.2,0-.2-.1-.1-.1-.1-.1-.1-.2v-.8c0-.1,0-.2.1-.2.1-.1.1-.1.2-.1h3.4a.367.367,0,0,1,.3.1c.1.1.1.1.1.2v1.5a4.649,4.649,0,0,1-.5,2.1,3.182,3.182,0,0,1-1.5,1.3,5.214,5.214,0,0,1-2.3.5A4.5,4.5,0,0,1,298.8,210.3Z" fill="#3d415b"/>
        <path id="XMLID_204_" d="M310.2,211c-.1-.1-.1-.1-.1-.2v-9.3a.367.367,0,0,1,.1-.3c.1-.1.1-.1.2-.1h6.3a.354.354,0,0,1,.4.4v1c0,.1,0,.2-.1.2a.367.367,0,0,1-.3.1H312v2.5h4.4a.354.354,0,0,1,.4.4v.9c0,.1,0,.2-.1.2a.367.367,0,0,1-.3.1H312v2.6h4.8a.367.367,0,0,1,.3.1c.1.1.1.1.1.2v1c0,.1,0,.2-.1.2a.367.367,0,0,1-.3.1h-6.4C310.3,211.1,310.2,211.1,310.2,211Z" fill="#3d415b"/>
        <path id="XMLID_207_" d="M326.6,211c-.1-.1-.1-.1-.1-.2v-9.3a.367.367,0,0,1,.1-.3c.1-.1.1-.1.2-.1h1.1a.52.52,0,0,1,.4.2l4.1,6.3v-6.2a.367.367,0,0,1,.1-.3c.1-.1.1-.1.2-.1h1.2a.354.354,0,0,1,.4.4v9.2a.367.367,0,0,1-.1.3c-.1.1-.1.1-.2.1h-1.1a.52.52,0,0,1-.4-.2l-4.1-6.2v6.1c0,.1,0,.2-.1.2-.1.1-.1.1-.2.1h-1.2Q326.6,211.15,326.6,211Z" fill="#3d415b"/>
        <path id="XMLID_209_" d="M339.5,210.3a3.841,3.841,0,0,1-1.1-2.9V205a3.56,3.56,0,0,1,1.2-2.9,4.2,4.2,0,0,1,3-1,4.04,4.04,0,0,1,3,1,4.312,4.312,0,0,1,1.2,2.9v2.4a3.69,3.69,0,0,1-1.1,2.9,4.04,4.04,0,0,1-3,1A4.243,4.243,0,0,1,339.5,210.3Zm4.5-1.2a2.352,2.352,0,0,0,.6-1.7V205a2.059,2.059,0,0,0-.6-1.7,2.175,2.175,0,0,0-3,0,2.352,2.352,0,0,0-.6,1.7v2.4a2.059,2.059,0,0,0,.6,1.7,2.035,2.035,0,0,0,1.5.6A2.529,2.529,0,0,0,344,209.1Z" fill="#3d415b"/>
        <path id="XMLID_212_" d="M352.8,211c-.1-.1-.1-.1-.1-.2V203H350c-.1,0-.2,0-.2-.1a.367.367,0,0,1-.1-.3v-1.1a.367.367,0,0,1,.1-.3c.1-.1.1-.1.2-.1h7.3a.354.354,0,0,1,.4.4v1.1a.354.354,0,0,1-.4.4h-2.6v7.8c0,.1,0,.2-.1.2-.1.1-.1.1-.2.1H353C352.9,211.1,352.8,211.1,352.8,211Z" fill="#3d415b"/>
        <path id="XMLID_214_" d="M366.4,211c-.1-.1-.1-.1-.1-.2v-9.3a.367.367,0,0,1,.1-.3c.1-.1.1-.1.2-.1h6.2a.354.354,0,0,1,.4.4v1c0,.1,0,.2-.1.2a.367.367,0,0,1-.3.1h-4.6v2.7h4.3a.367.367,0,0,1,.3.1c.1.1.1.1.1.2v1c0,.1,0,.2-.1.2a.367.367,0,0,1-.3.1h-4.3v3.5c0,.1,0,.2-.1.2a.367.367,0,0,1-.3.1h-1.3C366.5,211.1,366.4,211.1,366.4,211Z" fill="#3d415b"/>
        <path id="XMLID_216_" d="M377.7,210.3a3.841,3.841,0,0,1-1.1-2.9V205a3.56,3.56,0,0,1,1.2-2.9,4.2,4.2,0,0,1,3-1,4.04,4.04,0,0,1,3,1A4.312,4.312,0,0,1,385,205v2.4a3.69,3.69,0,0,1-1.1,2.9,4.04,4.04,0,0,1-3,1A4.4,4.4,0,0,1,377.7,210.3Zm4.6-1.2a2.352,2.352,0,0,0,.6-1.7V205a2.059,2.059,0,0,0-.6-1.7,2.175,2.175,0,0,0-3,0,2.352,2.352,0,0,0-.6,1.7v2.4a2.059,2.059,0,0,0,.6,1.7,2.035,2.035,0,0,0,1.5.6A2.529,2.529,0,0,0,382.3,209.1Z" fill="#3d415b"/>
        <path id="XMLID_219_" d="M389.9,210.3a3.924,3.924,0,0,1-1.1-3v-5.8a.367.367,0,0,1,.1-.3c.1-.1.1-.1.2-.1h1.3a.354.354,0,0,1,.4.4v5.8a2.86,2.86,0,0,0,.5,1.7,2.035,2.035,0,0,0,1.5.6,1.755,1.755,0,0,0,1.5-.6,2.175,2.175,0,0,0,.5-1.7v-5.8a.354.354,0,0,1,.4-.4h1.3c.1,0,.2,0,.2.1a.367.367,0,0,1,.1.3v5.8a4.081,4.081,0,0,1-1.1,3,4.04,4.04,0,0,1-3,1A3.857,3.857,0,0,1,389.9,210.3Z" fill="#3d415b"/>
        <path id="XMLID_221_" d="M401.3,211c-.1-.1-.1-.1-.1-.2v-9.3a.367.367,0,0,1,.1-.3c.1-.1.1-.1.2-.1h1.1a.52.52,0,0,1,.4.2l4.1,6.3v-6.2a.367.367,0,0,1,.1-.3c.1-.1.1-.1.2-.1h1.2a.354.354,0,0,1,.4.4v9.2a.367.367,0,0,1-.1.3c-.1.1-.1.1-.2.1h-1.1a.52.52,0,0,1-.4-.2l-4.1-6.2v6.1c0,.1,0,.2-.1.2-.1.1-.1.1-.2.1h-1.2A.187.187,0,0,1,401.3,211Z" fill="#3d415b"/>
        <path id="XMLID_223_" d="M413.5,211c-.1-.1-.1-.1-.1-.2v-9.3a.367.367,0,0,1,.1-.3c.1-.1.1-.1.2-.1h3.5c2.8,0,4.2,1.3,4.3,3.9v2.2a3.69,3.69,0,0,1-1.1,2.9,4.589,4.589,0,0,1-3.1.9h-3.5A.187.187,0,0,1,413.5,211Zm3.7-1.5a2.457,2.457,0,0,0,1.7-.5,2.649,2.649,0,0,0,.6-1.7v-2.2a2.2,2.2,0,0,0-.6-1.7,2.311,2.311,0,0,0-1.7-.5h-1.7v6.7h1.7Z" fill="#3d415b"/>
      </g>
      <g id="XMLID_9_">
        <g id="XMLID_205_">
          <path id="XMLID_236_" d="M299.7,192.3a1.816,1.816,0,0,1-.6-1.4V180.6H273.6a1.974,1.974,0,0,1-1.4-.6,1.816,1.816,0,0,1-.6-1.4v-5.5a3.583,3.583,0,0,1,.9-2.4l23.7-32.8a2.94,2.94,0,0,1,1.2-1,4.777,4.777,0,0,1,1.8-.4H308a1.736,1.736,0,0,1,1.9,1.9v32.5h7.2a1.736,1.736,0,0,1,1.9,1.9v5.7a2.389,2.389,0,0,1-.5,1.4,1.678,1.678,0,0,1-1.4.6H310v10.3a2.389,2.389,0,0,1-.5,1.4,1.678,1.678,0,0,1-1.4.6H301A1.535,1.535,0,0,1,299.7,192.3ZM283,171.4h16.3V148.3Z" fill="#e37296"/>
          <path id="XMLID_231_" d="M332.2,187.7q-5.25-6-5.7-15.6c-.1-1.4-.1-3.9-.1-7.4s0-6.1.1-7.6c.3-6.3,2.2-11.5,5.8-15.4,3.6-4,8.9-5.9,16-5.9s12.4,2,16,5.9c3.6,4,5.5,9.1,5.8,15.4.1,3,.2,5.5.2,7.6,0,2-.1,4.5-.2,7.4q-.45,9.6-5.7,15.6c-3.5,4-8.9,5.9-16,5.9C341,193.6,335.7,191.7,332.2,187.7Zm23.5-6.7c1.7-2.2,2.5-5.3,2.7-9.3.1-1.6.1-3.9.1-7.2,0-3.2,0-5.5-.1-7-.1-3.9-1-7-2.7-9.2s-4.2-3.3-7.5-3.4c-3.3.1-5.8,1.2-7.5,3.4s-2.5,5.3-2.7,9.2c-.1,1.4-.1,3.8-.1,7s0,5.6.1,7.2q.15,6,2.7,9.3c1.7,2.2,4.1,3.3,7.5,3.3C351.5,184.2,354,183.2,355.7,181Z" fill="#e37296"/>
          <path id="XMLID_226_" d="M405.1,192.3a1.816,1.816,0,0,1-.6-1.4V180.6H379a1.974,1.974,0,0,1-1.4-.6,1.816,1.816,0,0,1-.6-1.4v-5.5a3.583,3.583,0,0,1,.9-2.4l23.7-32.8a2.94,2.94,0,0,1,1.2-1,4.777,4.777,0,0,1,1.8-.4h8.8a1.736,1.736,0,0,1,1.9,1.9v32.5h7.2a1.736,1.736,0,0,1,1.9,1.9v5.7a2.389,2.389,0,0,1-.5,1.4,1.678,1.678,0,0,1-1.4.6h-7.2v10.3a2.389,2.389,0,0,1-.5,1.4,1.678,1.678,0,0,1-1.4.6h-7.1A1.584,1.584,0,0,1,405.1,192.3Zm-16.6-20.9h16.3V148.3Z" fill="#e37296"/>
        </g>
      </g>
      <g id="XMLID_90_">
        <path id="XMLID_91_" d="M318.5,124.4a6.477,6.477,0,0,1-1.8-4.6V116a6.3,6.3,0,0,1,1.9-4.6,8,8,0,0,1,9.6,0,6.3,6.3,0,0,1,1.9,4.6v3.8a6.477,6.477,0,0,1-1.8,4.6,7.3,7.3,0,0,1-4.8,1.6C321.2,125.9,319.6,125.4,318.5,124.4Zm7.2-2a3.767,3.767,0,0,0,.9-2.8V116a3.956,3.956,0,0,0-1-2.8,3.65,3.65,0,0,0-4.8,0,3.767,3.767,0,0,0-.9,2.8v3.6a3.927,3.927,0,0,0,.9,2.8,3.244,3.244,0,0,0,2.4.9A3.328,3.328,0,0,0,325.7,122.4Z" fill="#3d415b"/>
        <path id="XMLID_95_" d="M334.9,124.6a5.339,5.339,0,0,1-1.6-3.8v-2a5.1,5.1,0,0,1,1.6-3.7,5.81,5.81,0,0,1,4.1-1.4,5.984,5.984,0,0,1,4.1,1.4,5.283,5.283,0,0,1,1.6,3.7v2a5.527,5.527,0,0,1-1.6,3.8A5.81,5.81,0,0,1,339,126,6.108,6.108,0,0,1,334.9,124.6Zm5.9-1.7a3.393,3.393,0,0,0,.7-2.2v-1.8a3.393,3.393,0,0,0-.7-2.2,2.2,2.2,0,0,0-1.8-.8,2.56,2.56,0,0,0-1.9.8,3.393,3.393,0,0,0-.7,2.2v1.8a3.393,3.393,0,0,0,.7,2.2,2.352,2.352,0,0,0,1.9.7A1.892,1.892,0,0,0,340.8,122.9Z" fill="#3d415b"/>
        <path id="XMLID_159_" d="M348.5,129.9a.52.52,0,0,1-.2-.4v-15a.52.52,0,0,1,.2-.4c.1-.1.2-.1.4-.1h1.8a.707.707,0,0,1,.6.6v.9a4.2,4.2,0,0,1,3.6-1.7,4.513,4.513,0,0,1,3.5,1.4,5.9,5.9,0,0,1,1.3,3.9v1.6a5.622,5.622,0,0,1-1.3,3.8,4.26,4.26,0,0,1-3.5,1.5,4.061,4.061,0,0,1-3.5-1.6v5.1c0,.2,0,.3-.1.4s-.2.1-.4.1h-2C348.7,130,348.6,130,348.5,129.9Zm8-9.4v-1.4c-.1-2-1-3-2.6-3a2.268,2.268,0,0,0-1.9.8,4.347,4.347,0,0,0-.7,2v1.8a2.935,2.935,0,0,0,.7,1.9,2.407,2.407,0,0,0,1.9.8C355.6,123.5,356.4,122.5,356.5,120.5Z" fill="#3d415b"/>
        <path id="XMLID_169_" d="M364.9,125.4a3.716,3.716,0,0,1-1.7-1.2,2.2,2.2,0,0,1-.6-1.2c0-.2,0-.3.1-.4s.2-.1.4-.1H365c.1,0,.2.1.3.2a2.737,2.737,0,0,0,.5.4,4.053,4.053,0,0,0,.9.5,3.6,3.6,0,0,0,1.1.2,2.41,2.41,0,0,0,1.5-.4,1.1,1.1,0,0,0,.6-1,.908.908,0,0,0-.3-.7,1.934,1.934,0,0,0-.9-.5,11.343,11.343,0,0,0-2-.5,6.69,6.69,0,0,1-2.8-1.2,2.792,2.792,0,0,1-.9-2.2,3.371,3.371,0,0,1,.5-1.7,4.172,4.172,0,0,1,1.6-1.3,7.01,7.01,0,0,1,5.2,0,4.345,4.345,0,0,1,1.7,1.2,2.2,2.2,0,0,1,.6,1.2.6.6,0,0,1-.1.4c-.1.1-.2.1-.4.1h-1.7a.52.52,0,0,1-.4-.2c-.1-.1-.3-.2-.5-.4a2.178,2.178,0,0,0-.8-.5,2.959,2.959,0,0,0-1-.2,1.7,1.7,0,0,0-1.3.4,1.193,1.193,0,0,0-.5.9,1.445,1.445,0,0,0,.2.7,1.252,1.252,0,0,0,.9.5,11.343,11.343,0,0,0,2,.5c2.7.5,4.1,1.7,4.1,3.5a3.143,3.143,0,0,1-1.4,2.6,6.254,6.254,0,0,1-3.9,1A7.816,7.816,0,0,1,364.9,125.4Z" fill="#3d415b"/>
        <path id="XMLID_171_" d="M376.6,125.6a.52.52,0,0,1-.2-.4V123a.52.52,0,0,1,.2-.4c.1-.1.2-.1.4-.1h2.1a.707.707,0,0,1,.6.6v2.1a.707.707,0,0,1-.6.6H377C376.8,125.7,376.7,125.7,376.6,125.6Zm.1-4.4a.52.52,0,0,1-.2-.4V110.5a.52.52,0,0,1,.2-.4c.1-.1.2-.1.4-.1H379a.707.707,0,0,1,.6.6v10.3a.707.707,0,0,1-.6.6h-1.9C376.9,121.3,376.8,121.3,376.7,121.2Z" fill="#3d415b"/>
      </g>
    </g>
    <g id="Group_1" data-name="Group 1">
      <rect id="Rectangle_1" data-name="Rectangle 1" width="163" height="33" transform="translate(797 426)" fill="#eaebfb"/>
      <text id="Permission_Denied" data-name="Permission 
Denied" transform="translate(884 462)" fill="#040404" font-size="22" font-family="Montserrat-Bold, Montserrat" font-weight="700"><tspan x="-67.331" y="0">Permission </tspan><tspan x="-41.492" y="27">Denied</tspan></text>
    </g>
  </g>
</svg>
